<?xml version="1.0" encoding="UTF-8"?>
<svg id="Ebene_1" xmlns="http://www.w3.org/2000/svg" baseProfile="tiny" version="1.2" viewBox="0 0 4159 1000">
  <!-- Generator: Adobe Illustrator 29.8.1, SVG Export Plug-In . SVG Version: 2.1.1 Build 2)  -->
  <path d="M187.53,74.18c46.4,38.78,185.84,119.47,232.57,134.51-24,15.93-112.05-13.88-205.07-68.14-64.62-37.69-70.39-50.03-96.02,4.44-15.51,32.96-18.17,96.28-3,138,14.45,39.74-.54,79.43,32.32,135.69C43.16,364.85,39.61-68.99,187.53,74.18Z" fill="#f2f2f2" stroke="#adadad" stroke-miterlimit="10" stroke-width="2"/>
  <path d="M168.24,472.21c-10.73-5.57-19.42-10.46-4.16-15.92,29.85-10.67,82.31,2.7,94.47,27.02,16.15,32.31,10.27,82.07,7.91,107.69-7.45,80.68-126.37,323.09-225.34,346.38-9.64,2.27-18.79,6.62-27.11-2.32,23.78-10.2,341.48-365.59,154.24-462.85h0Z" fill="#d8d8d8" stroke="#adadad" stroke-miterlimit="10" stroke-width="2"/>
  <path d="M148.48,490.24c4.75,21.6-4.98,40.91-10.56,60.54-24.45,86.12-41.39,173.89-59.6,261.4-3.35,16.08-4.98,33.9-21.46,43.96-6.8-11.78,7.84-198.75,42.78-285.16,6.75-16.69,26.9-63.69,32.45-69.93l-.04.06c4.15-5.64,8.5-10.97,16.44-10.87h-.01Z" fill="#d8d8d8" stroke="#adadad" stroke-miterlimit="10" stroke-width="2"/>
  <path d="M546.19,122.78c-13.61-5.49-131.48,15.91-166.6,37.67-6.69,16.11,4.77,15.83,14.88,16.14,28.5.87,121.1-43.01,138.7-21.74,7.8,9.57,0,193.85-93.51,193.23-61.88-.41-143.42.62-194.51,22.21-11.09,4.69-78.15,37.64-67.4,50,4.44,5.1,9.7,3.46,14.08-.15,8.91-7.35,17.08-15.25,27.44-21.1,58.04-32.77,173.89-23.42,228.17-5.56,89.8,29.54,161.11-265.55,98.74-270.7h.01Z" fill="#f2f2f2" stroke="#adadad" stroke-miterlimit="10" stroke-width="2"/>
  <path d="M418.78,462.77c9.11-9.62,49.78-22.53,22.56,12.2-88.48,112.89-96.63,250.2-96.63,374.52,0,53.85,21.54,80.77,57.34,85.51,21.7,2.87,21.84-95.43,18.86-129.44,40.68,12.47,19.59,168.62-13.17,168.62-145.39,0-89.95-404.7,11.05-511.41h0Z" fill="#d8d8d8" stroke="#adadad" stroke-miterlimit="10" stroke-width="2"/>
  <g>
    <path d="M384.72,284.54c-5.97,0-10.83-5.07-10.83-11.31s4.86-11.31,10.83-11.31h3774.28v22.62H384.72Z" fill="#e30613"/>
    <path d="M4154,266.92v12.62H384.72c-3.22,0-5.83-2.83-5.83-6.31s2.61-6.31,5.83-6.31h3769.28M4164,256.92H384.72c-8.73,0-15.83,7.32-15.83,16.31s7.1,16.31,15.83,16.31h3779.28v-32.62h0Z" fill="#fff"/>
  </g>
  <g>
    <path d="M631.1,626.28c6.85-1.14,15.83-2.12,27.25-2.12,14.03,0,24.32,3.26,30.84,9.14,6.04,5.22,9.63,13.22,9.63,23.01s-2.94,17.79-8.49,23.5c-7.51,8-19.75,12.08-33.62,12.08-4.24,0-8.16-.16-11.42-.98v44.06h-14.2v-108.69h0ZM645.3,679.32c3.1.82,7.02,1.14,11.75,1.14,17.13,0,27.58-8.32,27.58-23.5s-10.28-21.54-25.95-21.54c-6.2,0-10.93.49-13.38,1.14v42.76h0Z" fill="#1d1d1b"/>
    <path d="M747.46,680.63c0-9.3-.16-17.3-.65-24.64h12.57l.49,15.5h.65c3.59-10.61,12.24-17.3,21.87-17.3,1.63,0,2.77.16,4.08.49v13.54c-1.47-.33-2.94-.49-4.9-.49-10.12,0-17.3,7.67-19.26,18.44-.33,1.96-.65,4.24-.65,6.69v42.1h-14.2v-54.34h0Z" fill="#1d1d1b"/>
    <path d="M876.39,734.97l-1.14-9.96h-.49c-4.41,6.2-12.89,11.75-24.15,11.75-15.99,0-24.15-11.26-24.15-22.68,0-19.09,16.97-29.54,47.49-29.38v-1.63c0-6.53-1.8-18.28-17.95-18.28-7.34,0-15.01,2.28-20.56,5.88l-3.26-9.47c6.53-4.24,15.99-7.02,25.95-7.02,24.15,0,30.03,16.48,30.03,32.31v29.54c0,6.85.33,13.54,1.31,18.93h-13.08ZM874.27,694.66c-15.67-.33-33.46,2.45-33.46,17.79,0,9.3,6.2,13.71,13.55,13.71,10.28,0,16.81-6.53,19.09-13.22.49-1.47.82-3.1.82-4.57v-13.71Z" fill="#1d1d1b"/>
    <path d="M950.64,655.99l11.26,16.97c2.94,4.41,5.39,8.49,8,12.89h.49c2.61-4.73,5.22-8.81,7.83-13.05l11.1-16.81h15.5l-26.93,38.19,27.74,40.8h-16.32l-11.59-17.79c-3.1-4.57-5.71-8.98-8.49-13.71h-.33c-2.61,4.73-5.39,8.98-8.32,13.71l-11.42,17.79h-15.83l28.07-40.31-26.76-38.68h16Z" fill="#1d1d1b"/>
    <path d="M1068.14,633.79c.16,4.9-3.43,8.81-9.14,8.81-5.06,0-8.65-3.92-8.65-8.81s3.75-8.98,8.98-8.98,8.81,3.92,8.81,8.98ZM1052.15,734.97v-78.99h14.36v78.99h-14.36Z" fill="#1d1d1b"/>
    <path d="M1121.02,720.28c4.24,2.77,11.75,5.71,18.93,5.71,10.44,0,15.34-5.22,15.34-11.75,0-6.85-4.08-10.61-14.69-14.52-14.2-5.06-20.89-12.89-20.89-22.36,0-12.73,10.28-23.17,27.25-23.17,8,0,15.01,2.28,19.42,4.9l-3.59,10.44c-3.1-1.96-8.81-4.57-16.16-4.57-8.49,0-13.22,4.9-13.22,10.77,0,6.53,4.73,9.46,15.01,13.38,13.71,5.22,20.73,12.08,20.73,23.83,0,13.87-10.77,23.66-29.54,23.66-8.65,0-16.65-2.12-22.19-5.39l3.59-10.93h0Z" fill="#1d1d1b"/>
    <path d="M1288.94,734.97v-68.05h-11.1v-10.93h11.1v-3.75c0-11.1,2.45-21.21,9.14-27.58,5.39-5.22,12.57-7.34,19.26-7.34,5.06,0,9.46,1.14,12.24,2.29l-1.96,11.1c-2.12-.98-5.06-1.79-9.14-1.79-12.24,0-15.34,10.77-15.34,22.85v4.24h19.09v10.93h-19.09v68.05h-14.2v-.02Z" fill="#1d1d1b"/>
    <path d="M1433.86,713.43c0,8.16.16,15.34.65,21.54h-12.73l-.82-12.89h-.33c-3.75,6.37-12.08,14.69-26.11,14.69-12.4,0-27.25-6.85-27.25-34.6v-46.18h14.36v43.74c0,15.01,4.57,25.13,17.62,25.13,9.63,0,16.32-6.69,18.93-13.06.82-2.12,1.31-4.73,1.31-7.34v-48.47h14.36v57.44h0ZM1377.88,633.63c0-4.57,3.75-8.32,8.32-8.32s8,3.59,8,8.32c0,4.41-3.26,8.32-8,8.32s-8.32-3.92-8.32-8.32ZM1408.24,633.63c0-4.57,3.59-8.32,8.16-8.32s8,3.59,8,8.32c0,4.41-3.26,8.32-8,8.32s-8.16-3.92-8.16-8.32Z" fill="#1d1d1b"/>
    <path d="M1490.32,680.63c0-9.3-.16-17.3-.65-24.64h12.57l.49,15.5h.65c3.59-10.61,12.24-17.3,21.87-17.3,1.63,0,2.77.16,4.08.49v13.54c-1.47-.33-2.94-.49-4.9-.49-10.12,0-17.3,7.67-19.26,18.44-.33,1.96-.65,4.24-.65,6.69v42.1h-14.2v-54.34h0Z" fill="#1d1d1b"/>
    <path d="M1643.56,677.36c0-8.16-.16-14.85-.65-21.38h12.57l.65,12.73h.49c4.41-7.51,11.75-14.52,24.8-14.52,10.77,0,18.93,6.53,22.36,15.83h.33c2.45-4.41,5.55-7.83,8.81-10.28,4.73-3.59,9.96-5.55,17.46-5.55,10.44,0,25.95,6.85,25.95,34.27v46.51h-14.04v-44.71c0-15.18-5.55-24.32-17.13-24.32-8.16,0-14.52,6.04-16.97,13.06-.65,1.96-1.14,4.57-1.14,7.18v48.79h-14.04v-47.33c0-12.57-5.55-21.71-16.48-21.71-8.98,0-15.5,7.18-17.79,14.36-.82,2.12-1.14,4.57-1.14,7.02v47.65h-14.03v-57.61h0Z" fill="#1d1d1b"/>
    <path d="M1883.79,694.83c0,29.21-20.24,41.94-39.33,41.94-21.38,0-37.86-15.67-37.86-40.63,0-26.44,17.3-41.94,39.17-41.94s38.02,16.48,38.02,40.63h0ZM1821.12,695.64c0,17.3,9.96,30.35,23.99,30.35s23.99-12.89,23.99-30.68c0-13.38-6.69-30.35-23.66-30.35s-24.32,15.67-24.32,30.68Z" fill="#1d1d1b"/>
    <path d="M2002.75,619.1v95.47c0,7.02.16,15.01.65,20.4h-12.89l-.65-13.71h-.33c-4.41,8.81-14.04,15.5-26.93,15.5-19.09,0-33.78-16.16-33.78-40.14-.16-26.28,16.16-42.43,35.41-42.43,12.08,0,20.24,5.71,23.83,12.08h.33v-47.16h14.36ZM1988.39,688.13c0-1.79-.16-4.24-.65-6.04-2.12-9.14-9.96-16.64-20.73-16.64-14.85,0-23.66,13.05-23.66,30.52,0,15.99,7.83,29.21,23.34,29.21,9.63,0,18.44-6.37,21.05-17.14.49-1.96.65-3.92.65-6.2v-13.71Z" fill="#1d1d1b"/>
    <path d="M2067.22,698.09c.33,19.42,12.73,27.42,27.09,27.42,10.28,0,16.48-1.79,21.87-4.08l2.45,10.28c-5.06,2.29-13.71,4.9-26.27,4.9-24.32,0-38.84-15.99-38.84-39.82s14.04-42.59,37.04-42.59c25.78,0,32.64,22.68,32.64,37.21,0,2.94-.33,5.22-.49,6.69h-55.49ZM2109.32,687.81c.16-9.14-3.75-23.34-19.91-23.34-14.52,0-20.89,13.38-22.03,23.34h41.94Z" fill="#1d1d1b"/>
    <path d="M2173.62,680.63c0-9.3-.16-17.3-.65-24.64h12.57l.49,15.5h.65c3.59-10.61,12.24-17.3,21.87-17.3,1.63,0,2.77.16,4.08.49v13.54c-1.47-.33-2.94-.49-4.9-.49-10.12,0-17.3,7.67-19.26,18.44-.33,1.96-.65,4.24-.65,6.69v42.1h-14.2v-54.34h0Z" fill="#1d1d1b"/>
    <path d="M2260.27,677.36c0-8.16-.16-14.85-.65-21.38h12.73l.82,13.06h.33c3.92-7.51,13.06-14.85,26.11-14.85,10.93,0,27.91,6.53,27.91,33.62v47.16h-14.36v-45.53c0-12.73-4.73-23.34-18.28-23.34-9.46,0-16.81,6.69-19.26,14.69-.65,1.79-.98,4.24-.98,6.69v47.49h-14.36v-57.61h-.01Z" fill="#1d1d1b"/>
    <path d="M2391.48,698.09c.33,19.42,12.73,27.42,27.09,27.42,10.28,0,16.48-1.79,21.87-4.08l2.45,10.28c-5.06,2.29-13.71,4.9-26.27,4.9-24.32,0-38.84-15.99-38.84-39.82s14.04-42.59,37.04-42.59c25.78,0,32.64,22.68,32.64,37.21,0,2.94-.33,5.22-.49,6.69h-55.49ZM2433.59,687.81c.16-9.14-3.75-23.34-19.91-23.34-14.52,0-20.89,13.38-22.03,23.34h41.94Z" fill="#1d1d1b"/>
    <path d="M2558.1,726.65l61.03-89.27v-.49h-55.81v-11.91h74.25v8.65l-60.71,88.94v.49h61.52v11.91h-80.29v-8.32h.01Z" fill="#1d1d1b"/>
    <path d="M2731.74,734.97l-1.14-9.96h-.49c-4.41,6.2-12.89,11.75-24.15,11.75-15.99,0-24.15-11.26-24.15-22.68,0-19.09,16.97-29.54,47.49-29.38v-1.63c0-6.53-1.8-18.28-17.95-18.28-7.34,0-15.01,2.28-20.56,5.88l-3.26-9.47c6.53-4.24,15.99-7.02,25.95-7.02,24.15,0,30.03,16.48,30.03,32.31v29.54c0,6.85.33,13.54,1.31,18.93h-13.08ZM2729.62,694.66c-15.67-.33-33.46,2.45-33.46,17.79,0,9.3,6.2,13.71,13.55,13.71,10.28,0,16.81-6.53,19.09-13.22.49-1.47.82-3.1.82-4.57v-13.71h0Z" fill="#1d1d1b"/>
    <path d="M2799.3,619.1h14.36v49.29h.33c2.28-4.08,5.88-7.67,10.28-10.12,4.24-2.45,9.3-4.08,14.69-4.08,10.61,0,27.58,6.53,27.58,33.78v47h-14.36v-45.37c0-12.73-4.73-23.5-18.28-23.5-9.3,0-16.65,6.53-19.26,14.36-.82,1.96-.98,4.08-.98,6.85v47.65h-14.36v-115.87h0Z" fill="#1d1d1b"/>
    <path d="M2922.51,677.36c0-8.16-.16-14.85-.65-21.38h12.73l.82,13.06h.33c3.92-7.51,13.06-14.85,26.11-14.85,10.93,0,27.91,6.53,27.91,33.62v47.16h-14.36v-45.53c0-12.73-4.73-23.34-18.28-23.34-9.46,0-16.81,6.69-19.26,14.69-.65,1.79-.98,4.24-.98,6.69v47.49h-14.36v-57.61h-.01Z" fill="#1d1d1b"/>
    <path d="M3045.73,619.1h14.36v49.29h.33c2.28-4.08,5.88-7.67,10.28-10.12,4.24-2.45,9.3-4.08,14.69-4.08,10.61,0,27.58,6.53,27.58,33.78v47h-14.36v-45.37c0-12.73-4.73-23.5-18.28-23.5-9.3,0-16.65,6.53-19.26,14.36-.82,1.96-.98,4.08-.98,6.85v47.65h-14.36v-115.87h0Z" fill="#1d1d1b"/>
    <path d="M3176.93,698.09c.33,19.42,12.73,27.42,27.09,27.42,10.28,0,16.48-1.79,21.87-4.08l2.45,10.28c-5.06,2.29-13.71,4.9-26.27,4.9-24.32,0-38.84-15.99-38.84-39.82s14.04-42.59,37.04-42.59c25.78,0,32.64,22.68,32.64,37.21,0,2.94-.33,5.22-.49,6.69h-55.49ZM3219.04,687.81c.16-9.14-3.75-23.34-19.91-23.34-14.52,0-20.89,13.38-22.03,23.34h41.94Z" fill="#1d1d1b"/>
    <path d="M3299.33,633.79c.16,4.9-3.43,8.81-9.14,8.81-5.06,0-8.65-3.92-8.65-8.81s3.75-8.98,8.98-8.98,8.81,3.92,8.81,8.98h0ZM3283.33,734.97v-78.99h14.36v78.99h-14.36Z" fill="#1d1d1b"/>
    <path d="M3354.16,619.1h14.36v115.87h-14.36v-115.87Z" fill="#1d1d1b"/>
    <path d="M3439.51,692.21h.33c1.96-2.78,4.73-6.2,7.02-8.98l23.17-27.25h17.3l-30.52,32.48,34.76,46.51h-17.46l-27.25-37.86-7.34,8.16v29.7h-14.2v-115.87h14.2v73.11h-.01Z" fill="#1d1d1b"/>
    <path d="M3601.24,713.43c0,8.16.16,15.34.65,21.54h-12.73l-.82-12.89h-.33c-3.75,6.37-12.08,14.69-26.11,14.69-12.4,0-27.25-6.85-27.25-34.6v-46.18h14.36v43.74c0,15.01,4.57,25.13,17.62,25.13,9.63,0,16.32-6.69,18.93-13.06.82-2.12,1.31-4.73,1.31-7.34v-48.47h14.36v57.44h.01Z" fill="#1d1d1b"/>
    <path d="M3657.7,677.36c0-8.16-.16-14.85-.65-21.38h12.73l.82,13.06h.33c3.92-7.51,13.06-14.85,26.11-14.85,10.93,0,27.91,6.53,27.91,33.62v47.16h-14.36v-45.53c0-12.73-4.73-23.34-18.28-23.34-9.46,0-16.81,6.69-19.26,14.69-.65,1.79-.98,4.24-.98,6.69v47.49h-14.36v-57.61h-.01Z" fill="#1d1d1b"/>
    <path d="M3849.13,619.1v95.47c0,7.02.16,15.01.65,20.4h-12.89l-.65-13.71h-.33c-4.41,8.81-14.04,15.5-26.93,15.5-19.09,0-33.78-16.16-33.78-40.14-.16-26.28,16.16-42.43,35.41-42.43,12.08,0,20.24,5.71,23.83,12.08h.33v-47.16h14.36,0ZM3834.77,688.13c0-1.79-.16-4.24-.65-6.04-2.12-9.14-9.96-16.64-20.73-16.64-14.85,0-23.66,13.05-23.66,30.52,0,15.99,7.83,29.21,23.34,29.21,9.63,0,18.44-6.37,21.05-17.14.49-1.96.65-3.92.65-6.2v-13.71h0Z" fill="#1d1d1b"/>
    <path d="M3913.59,698.09c.33,19.42,12.73,27.42,27.09,27.42,10.28,0,16.48-1.79,21.87-4.08l2.45,10.28c-5.06,2.29-13.71,4.9-26.27,4.9-24.32,0-38.84-15.99-38.84-39.82s14.04-42.59,37.04-42.59c25.78,0,32.64,22.68,32.64,37.21,0,2.94-.33,5.22-.49,6.69h-55.49ZM3955.69,687.81c.16-9.14-3.75-23.34-19.91-23.34-14.52,0-20.89,13.38-22.03,23.34h41.94Z" fill="#1d1d1b"/>
  </g>
  <g>
    <g>
      <path d="M999.93,521.63l42.92-62.77v-.34h-39.25v-8.38h52.22v6.08l-42.69,62.55v.34h43.26v8.38h-56.46v-5.85h0Z" fill="#1d1d1b"/>
      <path d="M1104.13,503.15l-8.03,24.33h-10.33l26.28-77.35h12.05l26.4,77.35h-10.67l-8.26-24.33h-27.44ZM1129.49,495.35l-7.57-22.26c-1.72-5.05-2.87-9.64-4.02-14.12h-.23c-1.15,4.59-2.41,9.3-3.9,14l-7.57,22.38h23.3-.01Z" fill="#1d1d1b"/>
      <path d="M1194.78,450.13v32.36h37.41v-32.36h10.1v77.35h-10.1v-36.27h-37.41v36.27h-9.98v-77.35h9.98Z" fill="#1d1d1b"/>
      <path d="M1282.57,527.48v-77.35h10.9l24.79,39.13c5.74,9.07,10.21,17.21,13.89,25.13l.23-.12c-.92-10.33-1.15-19.74-1.15-31.79v-32.36h9.41v77.35h-10.1l-24.56-39.25c-5.39-8.61-10.56-17.44-14.46-25.82l-.34.11c.57,9.75.8,19.05.8,31.9v33.05h-9.41v.02Z" fill="#1d1d1b"/>
      <path d="M1393.54,503.15l-8.03,24.33h-10.33l26.28-77.35h12.05l26.4,77.35h-10.67l-8.26-24.33h-27.44ZM1418.9,495.35l-7.57-22.26c-1.72-5.05-2.87-9.64-4.02-14.12h-.23c-1.15,4.59-2.41,9.3-3.9,14l-7.57,22.38h23.3-.01Z" fill="#1d1d1b"/>
      <path d="M1474.21,451.16c5.05-1.03,12.28-1.61,19.17-1.61,10.67,0,17.56,1.95,22.38,6.31,3.9,3.44,6.08,8.72,6.08,14.69,0,10.21-6.43,16.98-14.57,19.74v.34c5.97,2.07,9.52,7.57,11.36,15.61,2.52,10.79,4.36,18.25,5.97,21.23h-10.33c-1.26-2.18-2.98-8.84-5.16-18.48-2.29-10.67-6.43-14.69-15.49-15.03h-9.41v33.51h-9.98v-76.32h-.02ZM1484.19,486.4h10.21c10.67,0,17.44-5.85,17.44-14.69,0-9.98-7.23-14.35-17.79-14.46-4.82,0-8.26.46-9.87.92v28.23h.01Z" fill="#1d1d1b"/>
      <path d="M1553.62,521.63l42.92-62.77v-.34h-39.25v-8.38h52.22v6.08l-42.69,62.55v.34h43.26v8.38h-56.46v-5.85h0Z" fill="#1d1d1b"/>
      <path d="M1660,458.62h-23.53v-8.49h57.27v8.49h-23.64v68.86h-10.1v-68.86Z" fill="#1d1d1b"/>
    </g>
    <g>
      <path d="M1772.81,357.56h58.32c10.88,0,21.76,1.6,32.64,4.8,10.88,3.2,20.72,8.24,29.52,15.12s15.92,15.68,21.36,26.4,8.16,23.6,8.16,38.64-2.72,27.16-8.16,37.8c-5.44,10.64-12.56,19.44-21.36,26.4-8.8,6.96-18.64,12.16-29.52,15.6s-21.76,5.16-32.64,5.16h-58.32v-169.92h0ZM1796.57,506.6h29.76c10.24,0,19.72-1.44,28.44-4.32s16.24-7.04,22.56-12.48c6.32-5.44,11.24-12.16,14.76-20.16s5.28-17.04,5.28-27.12-1.76-19.84-5.28-27.84-8.44-14.68-14.76-20.04c-6.32-5.36-13.84-9.44-22.56-12.24-8.72-2.8-18.2-4.2-28.44-4.2h-29.76v128.4h0Z" fill="#1d1d1b"/>
      <path d="M1991.21,527.48h-23.76v-169.92h23.76v169.92Z" fill="#1d1d1b"/>
      <path d="M2068.24,527.48h-23.76v-169.92h54.48c8.16,0,15.92.84,23.28,2.52s13.8,4.36,19.32,8.04c5.52,3.68,9.88,8.52,13.08,14.52,3.2,6,4.8,13.32,4.8,21.96,0,12.48-3.84,22.56-11.52,30.24s-17.6,12.56-29.76,14.64l47.52,78h-28.8l-43.2-75.6h-25.44v75.6h0ZM2068.24,431.96h27.36c5.6,0,10.8-.48,15.6-1.44s9-2.52,12.6-4.68,6.44-4.96,8.52-8.4,3.12-7.72,3.12-12.84-1.04-9.4-3.12-12.84-4.84-6.2-8.28-8.28-7.48-3.56-12.12-4.44c-4.64-.88-9.52-1.32-14.64-1.32h-29.04v54.24h0Z" fill="#1d1d1b"/>
      <path d="M2227.6,432.44h.48l75.84-74.88h32.88l-82.56,77.76,87.6,92.16h-34.08l-79.68-87.84h-.48v87.84h-23.76v-169.92h23.76v74.88Z" fill="#1d1d1b"/>
      <path d="M2588.8,501.08c-6.72,9.12-15.44,16.52-26.16,22.2s-23.6,8.52-38.64,8.52c-12.96,0-24.92-2.2-35.88-6.6-10.96-4.4-20.4-10.56-28.32-18.48-7.92-7.92-14.12-17.36-18.6-28.32s-6.72-23-6.72-36.12,2.28-25.4,6.84-36.36c4.56-10.96,10.88-20.32,18.96-28.08,8.08-7.76,17.64-13.8,28.68-18.12s23.04-6.48,36-6.48c5.76,0,11.6.56,17.52,1.68s11.6,2.8,17.04,5.04c5.44,2.24,10.4,5,14.88,8.28s8.32,7.08,11.52,11.4l-18.72,14.4c-4.16-5.76-10.04-10.52-17.64-14.28-7.6-3.76-15.8-5.64-24.6-5.64-9.92,0-18.84,1.8-26.76,5.4s-14.68,8.52-20.28,14.76c-5.6,6.24-9.92,13.48-12.96,21.72s-4.56,17-4.56,26.28,1.48,18.56,4.44,26.88,7.2,15.56,12.72,21.72,12.24,11,20.16,14.52,16.76,5.28,26.52,5.28,18.32-1.92,26.16-5.76c7.84-3.84,14.32-9.44,19.44-16.8l18.96,12.96h0Z" fill="#1d1d1b"/>
      <path d="M2793.52,442.28c0,13.12-2.28,25.16-6.84,36.12s-10.84,20.4-18.84,28.32-17.52,14.08-28.56,18.48-23.04,6.6-36,6.6-24.92-2.2-35.88-6.6c-10.96-4.4-20.44-10.56-28.44-18.48s-14.24-17.36-18.72-28.32-6.72-23-6.72-36.12,2.24-25.4,6.72-36.36c4.48-10.96,10.72-20.32,18.72-28.08,8-7.76,17.48-13.8,28.44-18.12s22.92-6.48,35.88-6.48,24.96,2.16,36,6.48,20.56,10.36,28.56,18.12,14.28,17.12,18.84,28.08,6.84,23.08,6.84,36.36h0ZM2767.84,442.28c0-9.28-1.52-18.04-4.56-26.28s-7.36-15.48-12.96-21.72c-5.6-6.24-12.36-11.16-20.28-14.76s-16.84-5.4-26.76-5.4-18.6,1.8-26.52,5.4-14.64,8.52-20.16,14.76c-5.52,6.24-9.8,13.48-12.84,21.72s-4.56,17-4.56,26.28,1.52,18.32,4.56,26.64c3.04,8.32,7.36,15.56,12.96,21.72,5.6,6.16,12.32,11,20.16,14.52,7.84,3.52,16.64,5.28,26.4,5.28s18.64-1.76,26.64-5.28,14.8-8.36,20.4-14.52c5.6-6.16,9.92-13.4,12.96-21.72s4.56-17.2,4.56-26.64h0Z" fill="#1d1d1b"/>
      <path d="M2957.68,493.4h.48v-135.84h23.76v169.92h-30l-89.76-138.72h-.48v138.72h-23.76v-169.92h30.96l88.8,135.84Z" fill="#1d1d1b"/>
      <path d="M3058.96,527.48h-23.76v-169.92h54.48c8.16,0,15.92.84,23.28,2.52s13.8,4.36,19.32,8.04c5.52,3.68,9.88,8.52,13.08,14.52,3.2,6,4.8,13.32,4.8,21.96,0,12.48-3.84,22.56-11.52,30.24s-17.6,12.56-29.76,14.64l47.52,78h-28.8l-43.2-75.6h-25.44v75.6h0ZM3058.96,431.96h27.36c5.6,0,10.8-.48,15.6-1.44s9-2.52,12.6-4.68,6.44-4.96,8.52-8.4,3.12-7.72,3.12-12.84-1.04-9.4-3.12-12.84-4.84-6.2-8.28-8.28-7.48-3.56-12.12-4.44c-4.64-.88-9.52-1.32-14.64-1.32h-29.04v54.24h0Z" fill="#1d1d1b"/>
      <path d="M3201.52,527.48h-26.4l73.68-169.92h21.6l72.96,169.92h-26.88l-17.28-41.76h-80.64l-17.04,41.76h0ZM3226.96,464.84h63.6l-31.68-79.68-31.92,79.68h0Z" fill="#1d1d1b"/>
      <path d="M3377.2,357.56h58.32c10.88,0,21.76,1.6,32.64,4.8,10.88,3.2,20.72,8.24,29.52,15.12s15.92,15.68,21.36,26.4c5.44,10.72,8.16,23.6,8.16,38.64s-2.72,27.16-8.16,37.8c-5.44,10.64-12.56,19.44-21.36,26.4s-18.64,12.16-29.52,15.6c-10.88,3.44-21.76,5.16-32.64,5.16h-58.32v-169.92h0ZM3400.96,506.6h29.76c10.24,0,19.72-1.44,28.44-4.32s16.24-7.04,22.56-12.48,11.24-12.16,14.76-20.16,5.28-17.04,5.28-27.12-1.76-19.84-5.28-27.84-8.44-14.68-14.76-20.04c-6.32-5.36-13.84-9.44-22.56-12.24s-18.2-4.2-28.44-4.2h-29.76v128.4h0Z" fill="#1d1d1b"/>
    </g>
  </g>
</svg>